<svg width="621" height="482" viewBox="0 0 621 482" fill="none" xmlns="http://www.w3.org/2000/svg">
<g opacity="0.1" clip-path="url(#clip0_41_2795)">
<path d="M191.569 230.955L420.359 235.339L554.623 374.681L580.756 177.367L409.776 0L164.321 22.8583L29.1562 228.762L68.7157 349.02L191.569 230.955Z" fill="#1B1B1B"/>
<path d="M337.029 52.9765L259.386 56.0315L223.246 124.678L264.713 190.306L342.32 187.251L378.496 118.604L337.029 52.9765Z" fill="#FEFDFD"/>
<path d="M132.032 177.906H97.6923L80.4863 207.593L97.6923 237.316H132.032L149.238 207.593L132.032 177.906Z" fill="#FEFDFD"/>
<path d="M522.228 177.906H487.852L470.682 207.593L487.852 237.316H522.228L539.398 207.593L522.228 177.906Z" fill="#FEFDFD"/>
<path d="M263.561 118.317C264.245 111.524 266.945 105.342 271.012 100.346L247.111 99.1243C245.383 99.0524 244.52 101.137 245.779 102.323L263.561 118.317Z" fill="#F9A332"/>
<path d="M293.941 88.0187L277.923 70.2999C276.771 69.0061 274.648 69.9046 274.72 71.6297L275.943 95.4943C280.947 91.3611 287.138 88.7015 293.941 88.0187Z" fill="#F9A332"/>
<path d="M318.85 95.4584L320.074 71.5938C320.146 69.8686 318.059 69.0061 316.871 70.264L300.853 87.9827C307.656 88.7015 313.847 91.3612 318.85 95.4584Z" fill="#F9A332"/>
<path d="M331.233 118.317L348.979 102.323C350.275 101.173 349.375 99.0525 347.647 99.1243L323.746 100.346C327.85 105.342 330.549 111.524 331.233 118.317Z" fill="#F9A332"/>
<path d="M300.853 155.551L316.871 173.27C318.023 174.564 320.146 173.665 320.074 171.94L318.85 148.076C313.847 152.173 307.656 154.868 300.853 155.551Z" fill="#F9A332"/>
<path d="M331.233 125.253C330.549 132.046 327.85 138.228 323.782 143.223L347.683 144.445C349.411 144.517 350.275 142.433 349.015 141.247L331.233 125.253Z" fill="#F9A332"/>
<path d="M263.561 125.253L245.815 141.247C244.519 142.397 245.419 144.517 247.147 144.445L271.048 143.223C266.944 138.192 264.245 132.01 263.561 125.253Z" fill="#F9A332"/>
<path d="M275.943 148.111L274.72 171.976C274.648 173.701 276.735 174.564 277.923 173.306L293.941 155.587C287.138 154.868 280.947 152.173 275.943 148.111Z" fill="#F9A332"/>
<path d="M308.448 102.682H286.347L275.296 121.767L286.347 140.887H308.448L319.499 121.767L308.448 102.682Z" fill="#E8712E"/>
<path d="M126.021 222.688L107.34 224.773L96.2168 209.714L103.704 192.534L122.35 190.414L133.508 205.509L126.021 222.688Z" fill="#E8712E"/>
<path d="M513.12 224.737L494.222 223.155L486.159 206.012L496.958 190.485L515.892 192.067L523.955 209.21L513.12 224.737Z" fill="#E8712E"/>
<path d="M114.287 153.323L133.257 115.729L134.553 116.376L115.439 153.898L114.287 153.323Z" fill="#FEFDFD"/>
<path d="M162.161 184.052L171.556 163.242L172.888 163.817L163.169 184.483L162.161 184.052Z" fill="#FEFDFD"/>
<path d="M142.436 251.8L154.89 228.942L156.15 229.625L143.371 252.339L142.436 251.8Z" fill="#FEFDFD"/>
<path d="M208.38 176.145L220.834 153.287L222.094 153.97L209.316 176.684L208.38 176.145Z" fill="#FEFDFD"/>
<path d="M94.5967 284.147L107.087 261.253L108.347 261.935L95.5686 284.65L94.5967 284.147Z" fill="#FEFDFD"/>
<path d="M73.5039 328.965L85.9945 306.071L87.2543 306.789L74.4758 329.468L73.5039 328.965Z" fill="#FEFDFD"/>
<path d="M171.736 125.433L154.566 145.056L153.486 144.122L170.908 124.714L171.736 125.433Z" fill="#FEFDFD"/>
<path d="M73.2158 198.285L86.7862 176.037L87.3622 176.361L73.8277 198.644L73.2158 198.285Z" fill="#FEFDFD"/>
<path d="M219.971 208.599L244.052 198.608L244.592 199.938L220.475 209.821L219.971 208.599Z" fill="#FEFDFD"/>
<path d="M178.791 214.889L202.872 204.898L203.412 206.227L179.295 216.111L178.791 214.889Z" fill="#FEFDFD"/>
<path d="M399.806 188.329L391.562 159.72L392.966 159.361L400.309 188.185L399.806 188.329Z" fill="#FEFDFD"/>
<path d="M456.715 239.76L438.897 215.931L440.049 215.105L457.147 239.473L456.715 239.76Z" fill="#FEFDFD"/>
<path d="M448.436 129.997L456.715 158.606L455.311 159.001L447.968 130.141L448.436 129.997Z" fill="#FEFDFD"/>
<path d="M431.518 169.82L455.348 187.682L454.484 188.832L431.194 170.251L431.518 169.82Z" fill="#FEFDFD"/>
<path d="M377.848 43.8476L386.091 72.4204L384.723 72.8158L377.344 43.9554L377.848 43.8476Z" fill="#FEFDFD"/>
<path d="M215.363 99.304L197.473 123.097L196.321 122.234L214.967 98.9805L215.363 99.304Z" fill="#FEFDFD"/>
<path d="M190.238 70.9468L172.348 94.7755L171.232 93.877L189.842 70.6234L190.238 70.9468Z" fill="#FEFDFD"/>
<path d="M181.131 43.596L163.241 67.3887L162.089 66.5261L180.699 43.2725L181.131 43.596Z" fill="#FEFDFD"/>
<path d="M491.595 120.401L499.838 149.01L498.47 149.369L491.091 120.545L491.595 120.401Z" fill="#FEFDFD"/>
<path d="M535.762 239.544L544.005 268.153L542.637 268.549L535.258 239.688L535.762 239.544Z" fill="#FEFDFD"/>
<path d="M412.548 94.2723L420.827 122.881L419.423 123.276L412.08 94.4161L412.548 94.2723Z" fill="#FEFDFD"/>
<path d="M448.436 72.5641L456.715 101.173L455.311 101.532L447.968 72.7079L448.436 72.5641Z" fill="#FEFDFD"/>
<path d="M504.014 267.65L526.511 287.166L525.575 288.28L502.43 269.555L504.014 267.65Z" fill="#FEFDFD"/>
<path d="M314.136 207.306L343.94 206.802L343.976 207.629L314.172 208.707L314.136 207.306Z" fill="#FEFDFD"/>
<path d="M0 440.417L58.6012 357.106L73.2155 363L57.6293 463.598L0 440.417Z" fill="#1C1C1C"/>
<path d="M563.226 482L548.324 381.258L563.011 375.508L621 459.214L563.226 482Z" fill="#1C1C1C"/>
<path d="M575.826 434.271L567.655 438.548L569.202 429.491L562.615 423.057L571.722 421.764L575.826 413.497L579.893 421.764L589 423.057L582.413 429.491L583.961 438.548L575.826 434.271Z" fill="#FEFDFD"/>
<path d="M47.3708 419.715L39.1997 423.992L40.7835 414.935L34.1963 408.501L43.3032 407.172L47.3708 398.941L51.4383 407.172L60.5452 408.501L53.958 414.935L55.5058 423.992L47.3708 419.715Z" fill="#FEFDFD"/>
<path d="M159.138 295.145L438.789 292.09V326.844L159.138 323.825V295.145Z" fill="#1C1C1C"/>
<path d="M212.339 317.392L202.332 318.865L196.033 310.994L199.705 301.578L209.748 300.068L216.047 307.975L212.339 317.392Z" fill="#FEFDFD"/>
<path d="M274.289 317.392L264.282 318.865L257.982 310.994L261.69 301.578L271.697 300.068L277.996 307.975L274.289 317.392Z" fill="#FEFDFD"/>
<path d="M336.237 317.392L326.23 318.865L319.931 310.994L323.638 301.578L333.645 300.068L339.944 307.975L336.237 317.392Z" fill="#FEFDFD"/>
<path d="M398.186 317.392L388.179 318.865L381.88 310.994L385.587 301.578L395.594 300.068L401.894 307.975L398.186 317.392Z" fill="#FEFDFD"/>
</g>
<defs>
<clipPath id="clip0_41_2795">
<rect width="621" height="482" fill="white"/>
</clipPath>
</defs>
</svg>
